<!DOCTYPE svg PUBLIC "-//W3C//DTD SVG 1.1//EN" "http://www.w3.org/Graphics/SVG/1.1/DTD/svg11.dtd">
<!-- Uploaded to: SVG Repo, www.svgrepo.com, Transformed by: SVG Repo Mixer Tools -->
<svg version="1.1" id="Layer_1" xmlns="http://www.w3.org/2000/svg" xmlns:xlink="http://www.w3.org/1999/xlink" viewBox="0 0 512.00 512.00" xml:space="preserve" width="256px" height="256px" fill="#000000" stroke="#000000" stroke-width="3.071988" transform="rotate(0)">
<g id="SVGRepo_bgCarrier" stroke-width="0"/>
<g id="SVGRepo_tracerCarrier" stroke-linecap="round" stroke-linejoin="round" stroke="#CCCCCC" stroke-width="4.095984"/>
<g id="SVGRepo_iconCarrier"> <path style="fill:#507C5C;" d="M156.747,488.732c-9.848,0-24.224-4.823-56.16-40.563c-16.231-18.165-29.533-36.035-30.091-36.787 c-0.376-0.507-0.717-1.036-1.023-1.587c-6.073-10.932-9.283-23.321-9.283-35.827v-90.892c0-7.925,6.424-14.35,14.35-14.35h116.075 c16.624,0,32.305,6.421,44.155,18.082l59.433,58.485c8.383,8.382,12.955,19.419,12.955,31.159s-4.572,22.777-12.873,31.078 c-17.234,17.231-45.115,17.231-62.253,0.095l-59.37-59.372c-5.898-0.044-15.48-0.089-23.134-0.123l-10.82-0.052 c-7.925-0.042-14.317-6.499-14.275-14.424c0.042-7.899,6.457-14.275,14.348-14.275c0.026,0,0.05,0,0.076,0l10.802,0.052 c6.79,0.03,14.055,0.065,19.632,0.099c2.814,0.019,5.202,0.036,6.891,0.056c4.177,0.047,8.495,0.095,12.659,4.259l63.486,63.486 c5.946,5.948,15.624,5.948,21.569,0c2.976-2.976,4.563-6.806,4.563-10.88c0-4.074-1.586-7.904-4.467-10.784l-59.353-58.403 c-6.447-6.344-14.98-9.838-24.026-9.838H88.889v76.542c0,7.337,1.808,14.608,5.236,21.088c2.615,3.468,13.585,17.858,26.469,32.423 c25.476,28.797,35.211,32.208,36.504,32.554l155.149-0.03c10.576,0,22.902-5.538,34.621-11.21 c9.893-4.786,83.334-54.602,127.303-84.877c0.24-0.165,0.485-0.323,0.735-0.474c8.199-4.939,10.853-15.631,5.915-23.833 c-2.392-3.972-6.189-6.774-10.69-7.892c-4.417-1.096-8.99-0.442-12.912,1.842l-107.184,71.082c-6.605,4.379-15.51,2.576-19.89-4.028 c-4.379-6.605-2.576-15.509,4.028-19.89l107.483-71.28c0.174-0.115,0.349-0.227,0.528-0.333 c21.76-13.104,50.119-6.063,63.223,15.694c13.019,21.622,6.147,49.766-15.287,62.975c-13.295,9.152-115.768,79.597-130.749,86.847 c-14.716,7.122-30.476,14.076-47.121,14.076l-155.494,0.03C156.752,488.732,156.748,488.732,156.747,488.732z"/> <rect x="14.35" y="265.452" style="fill:#CFF09E;" width="84.146" height="189.587"/> <g> <path style="fill:#507C5C;" d="M98.49,469.381H14.35c-7.925,0-14.35-6.424-14.35-14.35V265.45c0-7.925,6.424-14.35,14.35-14.35 h84.14c7.925,0,14.35,6.424,14.35,14.35v189.581C112.84,462.956,106.415,469.381,98.49,469.381z M28.699,440.681H84.14V279.799 H28.699V440.681z"/> <path style="fill:#507C5C;" d="M273.037,237.471c-59.056,0-107.103-48.045-107.103-107.103S213.98,23.265,273.037,23.265 S380.14,71.311,380.14,130.368S332.093,237.471,273.037,237.471z M273.037,51.966c-43.231,0-78.403,35.171-78.403,78.403 s35.171,78.403,78.403,78.403s78.403-35.171,78.403-78.403S316.268,51.966,273.037,51.966z"/> </g> <circle style="fill:#CFF09E;" cx="348.925" cy="201.869" r="92.756"/> <g> <path style="fill:#507C5C;" d="M348.932,308.969c-59.056,0-107.103-48.045-107.103-107.103S289.875,94.764,348.932,94.764 s107.103,48.045,107.103,107.103S407.988,308.969,348.932,308.969z M348.932,123.463c-43.231,0-78.403,35.171-78.403,78.403 s35.171,78.403,78.403,78.403s78.403-35.171,78.403-78.403S392.164,123.463,348.932,123.463z"/> <path style="fill:#507C5C;" d="M345.377,248.147c-15.513-0.517-28.181-8.532-28.181-16.805c0-4.395,3.879-10.858,8.791-10.858 c5.43,0,9.825,7.627,19.391,9.307v-20.942c-11.893-4.524-25.855-10.083-25.855-26.63c0-16.417,12.151-24.304,25.855-26.243v-3.619 c0-1.809,2.068-3.49,4.912-3.49c2.455,0,4.912,1.68,4.912,3.49v3.232c8.014,0.258,23.14,2.327,23.14,11.246 c0,3.491-2.328,10.602-8.016,10.602c-4.266,0-6.723-4.137-15.125-4.783v18.874c11.764,4.395,25.466,10.471,25.466,27.923 c0,16.03-10.342,25.726-25.466,28.181v3.75c0,1.809-2.457,3.49-4.912,3.49c-2.844,0-4.912-1.68-4.912-3.49L345.377,248.147 L345.377,248.147z M346.669,188.422v-15.384c-5.817,1.164-8.274,4.137-8.274,7.239 C338.397,184.027,341.758,186.354,346.669,188.422z M353.909,212.337v17.323c4.395-1.035,7.887-3.491,7.887-8.145 C361.795,217.251,358.562,214.536,353.909,212.337z"/> </g> </g>
</svg>